<svg xmlns="http://www.w3.org/2000/svg" xmlns:xlink="http://www.w3.org/1999/xlink" width="567" height="567" viewBox="0 0 567 567"><defs><polygon id="a" points="0 0 566.957 0 566.957 566.956 0 566.956"/></defs><g fill="none" fill-rule="evenodd"><mask id="b" fill="#fff"><use xlink:href="#a"/></mask><path fill="#28FF52" d="M566.9566,283.478 C566.9566,440.039 440.0386,566.956 283.4786,566.956 C126.9176,566.956 -0.0004,440.039 -0.0004,283.478 C-0.0004,126.917 126.9176,0 283.4786,0 C440.0386,0 566.9566,126.917 566.9566,283.478" mask="url(#b)"/><g fill="#0D2925" transform="translate(110 110)"><path d="M156.531238 130 145.896227 130C145.896227 144.717084 133.394147 153.904508 118.915634 164.543248 103.108934 176.158561 85.2687432 189.26661 84.0039536 212.366601 83.9247061 213.790835 85.0468503 215 86.4669649 215L97.1178248 215C97.1178248 196.978821 111.485391 186.421329 126.697735 175.242526 134.330852 169.633212 142.2239 163.834317 148.240367 156.958486 154.873381 149.378502 158.407818 141.400244 158.994249 132.646144 159.090931 131.217131 157.956107 130 156.531238 130M91.4841762 130 146 130 146 119.434557C146 118.08935 144.887563 117 143.515824 117L91.4841762 117C90.1124372 117 89 118.08935 89 119.434557L89 127.563873C89 128.90908 90.1124372 130 91.4841762 130M154.507517 216 96 216 96 226.565443C96 227.91065 97.1161572 229 98.4924835 229L154.507517 229C155.883843 229 157 227.91065 157 226.565443L157 218.436127C157 217.09092 155.883843 216 154.507517 216M181.401594 166 192 166 192 119.42488C192 118.085649 190.924777 117 189.598406 117L181.401594 117C180.075223 117 179 118.085649 179 119.42488L179 163.57512C179 164.914351 180.075223 166 181.401594 166M261.598406 176 251 176 251 226.58301C251 227.917884 252.075223 229 253.401594 229L261.598406 229C262.924777 229 264 227.917884 264 226.58301L264 178.41699C264 177.082116 262.924777 176 261.598406 176"/><path d="M260.55391,117 L252.146076,117 C250.795131,117 249.699987,118.096141 249.699987,119.448315 L249.699987,152.478161 C249.699987,158.654956 244.697493,163.661999 238.526313,163.661999 L210.273177,163.661999 L210.273177,163.697204 L204.164348,163.697204 C190.266401,163.697204 179,174.973854 179,188.884442 L179,226.551685 C179,227.903859 180.095145,229 181.44609,229 L189.853924,229 C191.204869,229 192.300013,227.903859 192.300013,226.551685 L192.300013,189.308497 C192.300013,183.131703 197.302507,178.124659 203.473687,178.124659 L231.726823,178.124659 L231.726823,178.089454 L237.216935,178.089454 C251.457015,178.089454 263,166.535969 263,152.282936 L263,119.448315 C263,118.096141 261.904855,117 260.55391,117"/><path d="M301.814889 287C300.410742 287 298.998607 286.525562 297.838868 285.552724 295.214278 283.35625 294.867634 279.447326 297.065708 276.821143 321.271675 247.918748 334.603887 211.214479 334.603887 173.47028 334.603887 84.6544809 262.347006 12.3976946 173.529493 12.3976946 135.783648 12.3976946 99.0793316 25.7282913 70.1784963 49.9342269 67.5555043 52.1322977 63.6449778 51.7872517 61.4469041 49.1626657 59.2488304 46.5364822 59.5938769 42.6275583 62.2184663 40.4310849 93.3477266 14.359345 132.879507 0 173.529493 0 269.18244 0 347 77.8190557 347 173.47028 347 214.120214 332.642234 253.650345 306.568862 284.781163 305.343628 286.246011 303.58485 287 301.814889 287M173.470823 346C77.8177014 346 0 268.182761 0 172.530208 0 131.878791 14.3577924 92.3487714 40.4296138 61.2196393 42.6276915 58.5934632 46.5350302 58.2484182 49.1612218 60.4480803 51.7858161 62.6461449 52.1308632 66.5550579 49.9327855 69.1796365 25.7267743 98.0803527 12.3961359 134.784518 12.3961359 172.530208 12.3961359 261.345757 84.6547454 333.603938 173.470823 333.603938 211.216737 333.603938 247.92112 320.273379 276.822008 296.067511 279.445005 293.869447 283.355538 294.214492 285.553616 296.83907 287.751694 299.462051 287.405049 303.372562 284.782052 305.570626 253.652735 331.640695 214.12248 346 173.470823 346"/></g></g></svg>